# xmcd
#
# Track frame offsets:
#	150
#	29943
#	42708
#	61913
#	85150
#	106933
#	128213
#	151688
#	160715
#	178498
#	189628
#	214543
#	231017
#	234150
#	258045
#	275250
#	297788
#	320888
#
# Disc length: 4578
#
# Revision: 2
# Processed by: cddbd v1.5.1PL0 Copyright (c) Steve Scherf et al.
# Submitted via: CDex 1.50
# Normalized: r1:DSETVAR1
#
DISCID=fc11e012
DTITLE=Various Artist - 2003 Popkomm - Dutch Jazz
DYEAR=2003
DGENRE=Jazz
TTITLE0=Benjamin Herman - Outfront
TTITLE1=Zapp - Kiss
TTITLE2=Rob van Kreeveld - Well you needn't
TTITLE3=Verploegen and Verhoeff - The Tumbler
TTITLE4=Yuri Honing - Prism
TTITLE5=Amina Figaroya - Rio Sueno
TTITLE6=Sprinkhuizen Fennis - Droogkuis
TTITLE7=Jaap Blonk - Spruicht
TTITLE8=New Cool Collective - The Hun
TTITLE9=Bik Bent Braam - Can
TTITLE10=Eric Vloiemans - Monkido
TTITLE11=Corneille Roelofs Trio - Bond
TTITLE12=Zapp - Dextro
TTITLE13=Jeroen van vliet - Glider
TTITLE14=Gerard Kleijn Groep - Cupid's arrows
TTITLE15=Swingmatism - Take the money and run
TTITLE16=Mendoza Danced Part I - Wonders of life
TTITLE17=Fay Claassen - Just one of those things
EXTD=YEAR: 2003
EXTT0=
EXTT1=
EXTT2=
EXTT3=
EXTT4=
EXTT5=
EXTT6=
EXTT7=
EXTT8=
EXTT9=
EXTT10=
EXTT11=
EXTT12=
EXTT13=
EXTT14=
EXTT15=
EXTT16=
EXTT17=
PLAYORDER=
